<svg width="131" height="131" viewBox="0 0 131 131" fill="none" xmlns="http://www.w3.org/2000/svg">
<path d="M97.8797 0C102.348 0 106.556 0.857227 110.504 2.57168C114.453 4.28613 117.908 6.62402 120.869 9.58535C123.83 12.5467 126.168 16.0016 127.883 19.95C129.597 23.8984 130.454 28.1066 130.454 32.5746V97.7238C130.454 102.192 129.597 106.426 127.883 110.426C126.168 114.427 123.83 117.908 120.869 120.869C117.908 123.83 114.453 126.168 110.504 127.883C106.556 129.597 102.348 130.454 97.8797 130.454H32.5746C28.1066 130.454 23.8984 129.597 19.95 127.883C16.0016 126.168 12.5467 123.83 9.58535 120.869C6.62402 117.908 4.28613 114.427 2.57168 110.426C0.857227 106.426 0 102.192 0 97.7238V32.5746C0 28.1066 0.857227 23.8984 2.57168 19.95C4.28613 16.0016 6.62402 12.5467 9.58535 9.58535C12.5467 6.62402 16.0016 4.28613 19.95 2.57168C23.8984 0.857227 28.1066 0 32.5746 0H97.8797ZM107.231 86.1902C109.413 81.7223 110.504 75.7477 110.504 68.2664C110.504 59.7461 108.063 52.5766 103.179 46.7578C104.114 43.8484 104.582 40.8352 104.582 37.718C104.582 33.5617 103.646 29.6133 101.776 25.8727C97.8278 25.8727 94.4508 26.548 91.6453 27.8988C88.5281 29.3535 85.1512 31.5356 81.5145 34.4449C79.1246 33.9254 76.6828 33.5098 74.1891 33.1981C71.6953 32.8863 69.0977 32.7305 66.3961 32.7305C60.5774 32.7305 55.0184 33.3539 49.7191 34.6008C45.7707 31.6914 42.3418 29.5094 39.4324 28.0547C36.627 26.6 33.1981 25.8727 29.1457 25.8727C27.2754 29.6133 26.3402 33.5617 26.3402 37.718C26.3402 39.2766 26.4701 40.8092 26.7299 42.3158C26.9897 43.8225 27.3793 45.3031 27.8988 46.7578C23.0152 52.3688 20.5734 59.5383 20.5734 68.2664C20.5734 75.7477 21.6645 81.7223 23.8465 86.1902C25.6129 89.827 28.2106 92.7104 31.6395 94.8404C35.0684 96.9705 38.6531 98.5031 42.3938 99.4383C45.0953 100.27 47.8488 100.841 50.6543 101.153C52.2129 101.361 53.6676 101.516 55.0184 101.62C56.3691 101.724 57.616 101.776 58.759 101.776C59.902 101.88 61.0969 101.932 62.3438 101.932H71.0719L75.436 101.776C76.7867 101.672 78.2154 101.516 79.7221 101.309C81.2287 101.101 82.8652 100.841 84.6317 100.529C88.2684 99.9059 91.3336 99.0746 93.8274 98.0356C96.5289 96.8926 99.0746 95.308 101.464 93.2818C103.854 91.2557 105.777 88.8918 107.231 86.1902ZM84.4758 61.5645C88.8399 61.5645 92.2168 63.0711 94.6067 66.0844C97.1004 69.0977 98.3473 72.7863 98.3473 77.1504C98.3473 80.2676 97.7758 82.9951 96.6328 85.333C95.4899 87.6709 94.0352 89.5672 92.2688 91.0219C90.3985 92.3727 88.2164 93.4117 85.7227 94.1391C83.0211 94.9703 80.4754 95.5158 78.0856 95.7756C75.6957 96.0354 72.9941 96.1652 69.9809 96.1652H60.941C57.9277 96.1652 55.2522 96.0354 52.9143 95.7756C50.5764 95.5158 48.0566 94.9703 45.3551 94.1391C42.8613 93.4117 40.6793 92.3727 38.809 91.0219C37.0426 89.5672 35.5619 87.6709 34.367 85.333C33.1721 82.9951 32.5746 80.2676 32.5746 77.1504C32.5746 72.7863 33.8215 69.0977 36.3152 66.0844C38.7051 63.0711 42.082 61.5645 46.4461 61.5645C47.2774 61.5645 48.5762 61.6424 50.3426 61.7983C52.109 61.9541 54.343 62.2399 57.0445 62.6555C58.2914 62.8633 59.6162 63.0191 61.019 63.1231C62.4217 63.227 63.9024 63.2789 65.4609 63.2789C67.0195 63.2789 68.5002 63.227 69.9029 63.1231C71.3057 63.0191 72.6824 62.8633 74.0332 62.6555C76.7348 62.2399 78.9688 61.9541 80.7352 61.7983C82.5016 61.6424 83.7485 61.5645 84.4758 61.5645ZM52.057 85.5668C53.7195 83.6965 54.6807 81.6184 54.9404 79.3324C55.2002 77.0465 55.0184 74.8125 54.3949 72.6305C53.9793 71.1758 53.226 69.825 52.135 68.5781C51.044 67.3313 49.7191 66.7078 48.1606 66.7078C46.602 66.7078 45.3031 67.3313 44.2641 68.5781C42.6016 70.4484 41.6404 72.5266 41.3807 74.8125C41.1209 77.0984 41.3027 79.3324 41.9262 81.5145C42.4457 82.9692 43.251 84.3199 44.342 85.5668C45.433 86.8137 46.7059 87.4371 48.1606 87.4371C49.6152 87.4371 50.9141 86.8137 52.057 85.5668ZM86.6578 85.5668C88.3203 83.6965 89.2815 81.6184 89.5412 79.3324C89.801 77.0465 89.6192 74.8125 88.9957 72.6305C88.5801 71.1758 87.8268 69.825 86.7358 68.5781C85.6447 67.3313 84.3199 66.7078 82.7613 66.7078C81.2027 66.7078 79.9039 67.3313 78.8649 68.5781C77.2024 70.4484 76.2412 72.5266 75.9815 74.8125C75.7217 77.0984 75.9035 79.3324 76.527 81.5145C77.0465 82.9692 77.8518 84.3199 78.9428 85.5668C80.0338 86.8137 81.3066 87.4371 82.7613 87.4371C84.216 87.4371 85.5149 86.8137 86.6578 85.5668Z" fill="#BD3944"/>
</svg>
