<svg width="131" height="131" viewBox="0 0 131 131" fill="none" xmlns="http://www.w3.org/2000/svg">
<path d="M97.8797 0C102.348 0 106.556 0.857227 110.504 2.57168C114.453 4.28613 117.908 6.62402 120.869 9.58535C123.83 12.5467 126.168 16.0016 127.883 19.95C129.597 23.8984 130.454 28.1066 130.454 32.5746V97.7238C130.454 102.192 129.597 106.426 127.883 110.426C126.168 114.427 123.83 117.908 120.869 120.869C117.908 123.83 114.453 126.168 110.504 127.883C106.556 129.597 102.348 130.454 97.8797 130.454H32.5746C28.1066 130.454 23.8984 129.597 19.95 127.883C16.0016 126.168 12.5467 123.83 9.58535 120.869C6.62402 117.908 4.28613 114.427 2.57168 110.426C0.857227 106.426 0 102.192 0 97.7238V32.5746C0 28.1066 0.857227 23.8984 2.57168 19.95C4.28613 16.0016 6.62402 12.5467 9.58535 9.58535C12.5467 6.62402 16.0016 4.28613 19.95 2.57168C23.8984 0.857227 28.1066 0 32.5746 0H97.8797ZM28.5223 82.2938L48.1606 68.2664L28.5223 54.2391V82.2938ZM101.932 88.3723L78.0856 71.2277L65.3051 80.4234L52.3688 71.2277L28.5223 88.3723V97.7238H101.932V88.3723ZM101.932 54.2391L82.2938 68.2664L101.932 82.2938V54.2391ZM101.932 32.5746H28.5223V42.082L65.3051 68.2664L101.932 42.082V32.5746Z" fill="#BD3944"/>
</svg>
