<svg width="131" height="131" viewBox="0 0 131 131" fill="none" xmlns="http://www.w3.org/2000/svg">
<g id="&#240;&#159;&#166;&#134; icon &#34;circle linkedin&#34;">
<path id="Vector" d="M65.1492 0C74.1891 0 82.6574 1.71445 90.5543 5.14336C98.4512 8.57227 105.361 13.2221 111.284 19.0928C117.206 24.9635 121.882 31.8473 125.311 39.7441C128.74 47.641 130.454 56.1094 130.454 65.1492C130.454 74.1891 128.74 82.6574 125.311 90.5543C121.882 98.4512 117.206 105.361 111.284 111.284C105.361 117.206 98.4512 121.882 90.5543 125.311C82.6574 128.74 74.1891 130.454 65.1492 130.454C56.1094 130.454 47.641 128.74 39.7441 125.311C31.8473 121.882 24.9635 117.206 19.0928 111.284C13.2221 105.361 8.57227 98.4512 5.14336 90.5543C1.71445 82.6574 0 74.1891 0 65.1492C0 56.1094 1.71445 47.641 5.14336 39.7441C8.57227 31.8473 13.2221 24.9635 19.0928 19.0928C24.9635 13.2221 31.8473 8.57227 39.7441 5.14336C47.641 1.71445 56.1094 0 65.1492 0ZM44.8875 48.9398H28.5223V101.932H44.8875V48.9398ZM36.627 44.7316C38.9129 44.7316 40.8611 43.9524 42.4717 42.3938C44.0822 40.8352 44.8875 38.9129 44.8875 36.627C44.8875 34.341 44.0822 32.4188 42.4717 30.8602C40.8611 29.3016 38.9129 28.5223 36.627 28.5223C34.341 28.5223 32.4188 29.3016 30.8602 30.8602C29.3016 32.4188 28.5223 34.341 28.5223 36.627C28.5223 38.9129 29.3016 40.8352 30.8602 42.3938C32.4188 43.9524 34.341 44.7316 36.627 44.7316ZM101.932 71.2277C101.932 67.4871 100.893 63.8244 98.8149 60.2397C96.7367 56.6549 94.0352 53.9273 90.7102 52.057C87.6969 50.3945 84.19 49.5113 80.1897 49.4074C76.1893 49.3035 72.5266 49.9789 69.2016 51.4336V48.9398H52.9922V101.932H69.2016V69.5133L76.0594 66.2402C76.8906 65.8246 78.0076 65.6168 79.4104 65.6168C80.8131 65.6168 81.9301 65.8766 82.7613 66.3961C83.3848 66.7078 84.0082 67.3832 84.6317 68.4223C85.2551 69.4613 85.5668 70.3965 85.5668 71.2277V101.932H101.932V71.2277Z" fill="#BD3944"/>
</g>
</svg>
